0
SECTION
2
HEADER
9
$ACADVER
1
AC1027
9
$DWGCODEPAGE
3
utf_8
9
$INSBASE
10
0.0
20
0.0
30
0.0
9
$EXTMIN
10
-10.00
20
-10.00
30
0.0
9
$EXTMAX
10
430.00
20
307.00
30
0.0
9
$INSUNITS
70
4
9
$MEASUREMENT
70
1
9
$DIMSTYLE
2
Standard
9
$CELTYPE
6
BYLAYER
9
$TEXTSTYLE
7
STANDARD
9
$CLAYER
7
TEXT
9
$HANDSEED
5
1AB
0
ENDSEC
0
SECTION
2
CLASSES
0
ENDSEC
0
SECTION
2
TABLES
0
TABLE
2
LTYPE
5
100
100
AcDbSymbolTable
70
1
0
LTYPE
5
101
100
AcDbSymbolTableRecord
100
AcDbLinetypeTableRecord
2
CONTINUOUS
70
0
3
Solid line
72
65
73
0
40
0.0
0
ENDTAB
0
TABLE
2
LAYER
5
102
100
AcDbSymbolTable
70
17
0
LAYER
5
103
100
AcDbSymbolTableRecord
100
AcDbLayerTableRecord
2
BORDER
70
0
62
7
6
CONTINUOUS
0
LAYER
5
104
100
AcDbSymbolTableRecord
100
AcDbLayerTableRecord
2
CONCRETE
70
0
62
8
6
CONTINUOUS
0
LAYER
5
105
100
AcDbSymbolTableRecord
100
AcDbLayerTableRecord
2
REBAR
70
0
62
1
6
CONTINUOUS
0
LAYER
5
106
100
AcDbSymbolTableRecord
100
AcDbLayerTableRecord
2
REBAR_TOP
70
0
62
5
6
CONTINUOUS
0
LAYER
5
107
100
AcDbSymbolTableRecord
100
AcDbLayerTableRecord
2
STIRRUPS
70
0
62
2
6
CONTINUOUS
0
LAYER
5
108
100
AcDbSymbolTableRecord
100
AcDbLayerTableRecord
2
STEEL
70
0
62
7
6
CONTINUOUS
0
LAYER
5
109
100
AcDbSymbolTableRecord
100
AcDbLayerTableRecord
2
BOLTS
70
0
62
4
6
CONTINUOUS
0
LAYER
5
10A
100
AcDbSymbolTableRecord
100
AcDbLayerTableRecord
2
WELDS
70
0
62
2
6
CONTINUOUS
0
LAYER
5
10B
100
AcDbSymbolTableRecord
100
AcDbLayerTableRecord
2
LOADS
70
0
62
6
6
CONTINUOUS
0
LAYER
5
10C
100
AcDbSymbolTableRecord
100
AcDbLayerTableRecord
2
DIM
70
0
62
5
6
CONTINUOUS
0
LAYER
5
10D
100
AcDbSymbolTableRecord
100
AcDbLayerTableRecord
2
TEXT
70
0
62
7
6
CONTINUOUS
0
LAYER
5
10E
100
AcDbSymbolTableRecord
100
AcDbLayerTableRecord
2
NOTES
70
0
62
3
6
CONTINUOUS
0
LAYER
5
10F
100
AcDbSymbolTableRecord
100
AcDbLayerTableRecord
2
BBS
70
0
62
7
6
CONTINUOUS
0
LAYER
5
110
100
AcDbSymbolTableRecord
100
AcDbLayerTableRecord
2
LAP
70
0
62
1
6
CONTINUOUS
0
LAYER
5
111
100
AcDbSymbolTableRecord
100
AcDbLayerTableRecord
2
PANEL
70
0
62
8
6
CONTINUOUS
0
LAYER
5
112
100
AcDbSymbolTableRecord
100
AcDbLayerTableRecord
2
WATER
70
0
62
5
6
CONTINUOUS
0
LAYER
5
113
100
AcDbSymbolTableRecord
100
AcDbLayerTableRecord
2
REVISION
70
0
62
1
6
CONTINUOUS
0
ENDTAB
0
TABLE
2
STYLE
5
114
100
AcDbSymbolTable
70
1
0
STYLE
5
115
100
AcDbSymbolTableRecord
100
AcDbTextStyleTableRecord
2
STANDARD
70
0
40
0.0
41
1.0
50
0.0
71
0
42
2.5
3
txt
4

0
ENDTAB
0
TABLE
2
DIMSTYLE
5
116
100
AcDbSymbolTable
70
1
0
DIMSTYLE
105
117
100
AcDbSymbolTableRecord
100
AcDbDimStyleTableRecord
2
Standard
70
0
3

4

40
1.0
41
3.0
42
0.0
43
0.0
44
1.0
45
0.0
46
0.0
47
0.0
48
0.0
140
1.0
141
2.5
142
0.0
143
25.4
144
1.0
145
0.0
146
1.0
147
50.0
148
0.0
71
0
72
0
73
0
74
0
75
0
76
0
77
1
78
0
79
0
170
0
0
ENDTAB
0
TABLE
2
VPORT
5
118
100
AcDbSymbolTable
70
0
0
ENDTAB
0
TABLE
2
VIEW
5
119
100
AcDbSymbolTable
70
0
0
ENDTAB
0
TABLE
2
UCS
5
11A
100
AcDbSymbolTable
70
0
0
ENDTAB
0
TABLE
2
APPID
5
11B
100
AcDbSymbolTable
70
1
0
APPID
5
11C
100
AcDbSymbolTableRecord
100
AcDbRegAppTableRecord
2
ACAD
70
0
0
ENDTAB
0
ENDSEC
0
SECTION
2
BLOCKS
0
BLOCK
5
11D
100
AcDbEntity
8
0
100
AcDbBlockBegin
2
*MODEL_SPACE
70
0
10
0.0
20
0.0
30
0.0
3
*MODEL_SPACE
1

0
ENDBLK
5
11E
100
AcDbEntity
8
0
100
AcDbBlockEnd
0
BLOCK
5
11F
100
AcDbEntity
67
1
8
0
100
AcDbBlockBegin
2
*PAPER_SPACE
70
0
10
0.0
20
0.0
30
0.0
3
*PAPER_SPACE
1

0
ENDBLK
5
120
100
AcDbEntity
67
1
8
0
100
AcDbBlockEnd
0
ENDSEC
0
SECTION
2
ENTITIES
0
LWPOLYLINE
5
121
100
AcDbEntity
8
BORDER
62
7
370
50
100
AcDbPolyline
90
4
70
1
38
0.00
10
0.00
20
0.00
10
420.00
20
0.00
10
420.00
20
297.00
10
0.00
20
297.00
0
LWPOLYLINE
5
122
100
AcDbEntity
8
BORDER
62
7
370
25
100
AcDbPolyline
90
4
70
1
38
0.00
10
7.00
20
7.00
10
413.00
20
7.00
10
413.00
20
290.00
10
7.00
20
290.00
0
TEXT
5
123
100
AcDbEntity
8
TEXT
100
AcDbText
10
12.00
20
282.00
30
0.00
40
5.00
1
T
0
TEXT
5
124
100
AcDbEntity
8
TEXT
100
AcDbText
10
12.00
20
270.00
30
0.00
40
3.80
1
S-01 | COLUMN 300x500 — CLOSED TIED — 135° hooks (2 legs) | S-COL-001-C1
0
TEXT
5
125
100
AcDbEntity
8
NOTES
100
AcDbText
10
12.00
20
12.00
30
0.00
40
3.00
1
REV 00 | SCALE 1:20 | CODE ECP 203 / SBC / ACI
0
LWPOLYLINE
5
126
100
AcDbEntity
8
REVISION
62
7
370
25
100
AcDbPolyline
90
4
70
1
38
0.00
10
250.00
20
7.00
10
413.00
20
7.00
10
413.00
20
41.00
10
250.00
20
41.00
0
TEXT
5
127
100
AcDbEntity
8
REVISION
100
AcDbText
10
256.00
20
32.00
30
0.00
40
3.00
1
DWG S-01
0
TEXT
5
128
100
AcDbEntity
8
REVISION
100
AcDbText
10
256.00
20
22.00
30
0.00
40
3.00
1
REV 00
0
TEXT
5
129
100
AcDbEntity
8
REVISION
100
AcDbText
10
256.00
20
12.00
30
0.00
40
2.50
1
PREP 
0
TEXT
5
12A
100
AcDbEntity
8
TEXT
100
AcDbText
10
20.00
20
179.99
30
0.00
40
3.60
1
ELEVATION
0
LWPOLYLINE
5
12B
100
AcDbEntity
8
CONCRETE
62
7
370
35
100
AcDbPolyline
90
4
70
1
38
0.00
10
20.00
20
45.00
10
30.97
20
45.00
10
30.97
20
161.99
10
20.00
20
161.99
0
LINE
5
12C
100
AcDbEntity
8
REBAR
62
1
370
20
100
AcDbLine
10
21.10
20
45.00
30
0.00
11
21.10
21
161.99
31
0.00
0
LWPOLYLINE
5
12D
100
AcDbEntity
8
STIRRUPS
62
2
370
12
100
AcDbPolyline
90
4
70
1
38
0.00
10
20.66
20
45.00
10
40.66
20
45.00
10
40.66
20
46.50
10
20.66
20
46.50
0
LWPOLYLINE
5
12E
100
AcDbEntity
8
STIRRUPS
62
2
370
12
100
AcDbPolyline
90
4
70
1
38
0.00
10
20.66
20
49.68
10
40.66
20
49.68
10
40.66
20
51.18
10
20.66
20
51.18
0
LWPOLYLINE
5
12F
100
AcDbEntity
8
STIRRUPS
62
2
370
12
100
AcDbPolyline
90
4
70
1
38
0.00
10
20.66
20
54.36
10
40.66
20
54.36
10
40.66
20
55.86
10
20.66
20
55.86
0
LWPOLYLINE
5
130
100
AcDbEntity
8
STIRRUPS
62
2
370
12
100
AcDbPolyline
90
4
70
1
38
0.00
10
20.66
20
59.04
10
40.66
20
59.04
10
40.66
20
60.54
10
20.66
20
60.54
0
LWPOLYLINE
5
131
100
AcDbEntity
8
STIRRUPS
62
2
370
12
100
AcDbPolyline
90
4
70
1
38
0.00
10
20.66
20
63.72
10
40.66
20
63.72
10
40.66
20
65.22
10
20.66
20
65.22
0
LWPOLYLINE
5
132
100
AcDbEntity
8
STIRRUPS
62
2
370
12
100
AcDbPolyline
90
4
70
1
38
0.00
10
20.66
20
68.40
10
40.66
20
68.40
10
40.66
20
69.90
10
20.66
20
69.90
0
LWPOLYLINE
5
133
100
AcDbEntity
8
STIRRUPS
62
2
370
12
100
AcDbPolyline
90
4
70
1
38
0.00
10
20.66
20
73.08
10
40.66
20
73.08
10
40.66
20
74.58
10
20.66
20
74.58
0
LWPOLYLINE
5
134
100
AcDbEntity
8
STIRRUPS
62
2
370
12
100
AcDbPolyline
90
4
70
1
38
0.00
10
20.66
20
77.76
10
40.66
20
77.76
10
40.66
20
79.26
10
20.66
20
79.26
0
LWPOLYLINE
5
135
100
AcDbEntity
8
STIRRUPS
62
2
370
12
100
AcDbPolyline
90
4
70
1
38
0.00
10
20.66
20
82.44
10
40.66
20
82.44
10
40.66
20
83.94
10
20.66
20
83.94
0
LWPOLYLINE
5
136
100
AcDbEntity
8
STIRRUPS
62
2
370
12
100
AcDbPolyline
90
4
70
1
38
0.00
10
20.66
20
87.12
10
40.66
20
87.12
10
40.66
20
88.62
10
20.66
20
88.62
0
LWPOLYLINE
5
137
100
AcDbEntity
8
STIRRUPS
62
2
370
12
100
AcDbPolyline
90
4
70
1
38
0.00
10
20.66
20
91.80
10
40.66
20
91.80
10
40.66
20
93.30
10
20.66
20
93.30
0
LWPOLYLINE
5
138
100
AcDbEntity
8
STIRRUPS
62
2
370
12
100
AcDbPolyline
90
4
70
1
38
0.00
10
20.66
20
96.48
10
40.66
20
96.48
10
40.66
20
97.98
10
20.66
20
97.98
0
LWPOLYLINE
5
139
100
AcDbEntity
8
STIRRUPS
62
2
370
12
100
AcDbPolyline
90
4
70
1
38
0.00
10
20.66
20
101.16
10
40.66
20
101.16
10
40.66
20
102.66
10
20.66
20
102.66
0
LWPOLYLINE
5
13A
100
AcDbEntity
8
STIRRUPS
62
2
370
12
100
AcDbPolyline
90
4
70
1
38
0.00
10
20.66
20
105.84
10
40.66
20
105.84
10
40.66
20
107.34
10
20.66
20
107.34
0
LWPOLYLINE
5
13B
100
AcDbEntity
8
STIRRUPS
62
2
370
12
100
AcDbPolyline
90
4
70
1
38
0.00
10
20.66
20
110.52
10
40.66
20
110.52
10
40.66
20
112.02
10
20.66
20
112.02
0
LWPOLYLINE
5
13C
100
AcDbEntity
8
STIRRUPS
62
2
370
12
100
AcDbPolyline
90
4
70
1
38
0.00
10
20.66
20
115.20
10
40.66
20
115.20
10
40.66
20
116.70
10
20.66
20
116.70
0
LWPOLYLINE
5
13D
100
AcDbEntity
8
STIRRUPS
62
2
370
12
100
AcDbPolyline
90
4
70
1
38
0.00
10
20.66
20
119.88
10
40.66
20
119.88
10
40.66
20
121.38
10
20.66
20
121.38
0
LWPOLYLINE
5
13E
100
AcDbEntity
8
STIRRUPS
62
2
370
12
100
AcDbPolyline
90
4
70
1
38
0.00
10
20.66
20
124.56
10
40.66
20
124.56
10
40.66
20
126.06
10
20.66
20
126.06
0
LWPOLYLINE
5
13F
100
AcDbEntity
8
STIRRUPS
62
2
370
12
100
AcDbPolyline
90
4
70
1
38
0.00
10
20.66
20
129.24
10
40.66
20
129.24
10
40.66
20
130.74
10
20.66
20
130.74
0
LWPOLYLINE
5
140
100
AcDbEntity
8
STIRRUPS
62
2
370
12
100
AcDbPolyline
90
4
70
1
38
0.00
10
20.66
20
133.92
10
40.66
20
133.92
10
40.66
20
135.42
10
20.66
20
135.42
0
LWPOLYLINE
5
141
100
AcDbEntity
8
STIRRUPS
62
2
370
12
100
AcDbPolyline
90
4
70
1
38
0.00
10
20.66
20
138.60
10
40.66
20
138.60
10
40.66
20
140.10
10
20.66
20
140.10
0
LWPOLYLINE
5
142
100
AcDbEntity
8
STIRRUPS
62
2
370
12
100
AcDbPolyline
90
4
70
1
38
0.00
10
20.66
20
143.27
10
40.66
20
143.27
10
40.66
20
144.77
10
20.66
20
144.77
0
LWPOLYLINE
5
143
100
AcDbEntity
8
STIRRUPS
62
2
370
12
100
AcDbPolyline
90
4
70
1
38
0.00
10
20.66
20
147.95
10
40.66
20
147.95
10
40.66
20
149.45
10
20.66
20
149.45
0
LWPOLYLINE
5
144
100
AcDbEntity
8
STIRRUPS
62
2
370
12
100
AcDbPolyline
90
4
70
1
38
0.00
10
20.66
20
152.63
10
40.66
20
152.63
10
40.66
20
154.13
10
20.66
20
154.13
0
LWPOLYLINE
5
145
100
AcDbEntity
8
STIRRUPS
62
2
370
12
100
AcDbPolyline
90
4
70
1
38
0.00
10
20.66
20
157.31
10
40.66
20
157.31
10
40.66
20
158.81
10
20.66
20
158.81
0
LWPOLYLINE
5
146
100
AcDbEntity
8
STIRRUPS
62
2
370
12
100
AcDbPolyline
90
4
70
1
38
0.00
10
20.66
20
161.99
10
40.66
20
161.99
10
40.66
20
163.49
10
20.66
20
163.49
0
LWPOLYLINE
5
147
100
AcDbEntity
8
STIRRUPS
62
2
370
12
100
AcDbPolyline
90
4
70
1
38
0.00
10
20.66
20
45.00
10
40.66
20
45.00
10
40.66
20
46.50
10
20.66
20
46.50
0
LWPOLYLINE
5
148
100
AcDbEntity
8
STIRRUPS
62
2
370
12
100
AcDbPolyline
90
4
70
1
38
0.00
10
20.66
20
52.31
10
40.66
20
52.31
10
40.66
20
53.81
10
20.66
20
53.81
0
LWPOLYLINE
5
149
100
AcDbEntity
8
STIRRUPS
62
2
370
12
100
AcDbPolyline
90
4
70
1
38
0.00
10
20.66
20
59.62
10
40.66
20
59.62
10
40.66
20
61.12
10
20.66
20
61.12
0
LWPOLYLINE
5
14A
100
AcDbEntity
8
STIRRUPS
62
2
370
12
100
AcDbPolyline
90
4
70
1
38
0.00
10
20.66
20
66.94
10
40.66
20
66.94
10
40.66
20
68.44
10
20.66
20
68.44
0
LWPOLYLINE
5
14B
100
AcDbEntity
8
STIRRUPS
62
2
370
12
100
AcDbPolyline
90
4
70
1
38
0.00
10
20.66
20
74.25
10
40.66
20
74.25
10
40.66
20
75.75
10
20.66
20
75.75
0
LWPOLYLINE
5
14C
100
AcDbEntity
8
STIRRUPS
62
2
370
12
100
AcDbPolyline
90
4
70
1
38
0.00
10
20.66
20
81.56
10
40.66
20
81.56
10
40.66
20
83.06
10
20.66
20
83.06
0
LWPOLYLINE
5
14D
100
AcDbEntity
8
STIRRUPS
62
2
370
12
100
AcDbPolyline
90
4
70
1
38
0.00
10
20.66
20
88.87
10
40.66
20
88.87
10
40.66
20
90.37
10
20.66
20
90.37
0
LWPOLYLINE
5
14E
100
AcDbEntity
8
STIRRUPS
62
2
370
12
100
AcDbPolyline
90
4
70
1
38
0.00
10
20.66
20
96.18
10
40.66
20
96.18
10
40.66
20
97.68
10
20.66
20
97.68
0
LWPOLYLINE
5
14F
100
AcDbEntity
8
STIRRUPS
62
2
370
12
100
AcDbPolyline
90
4
70
1
38
0.00
10
20.66
20
103.50
10
40.66
20
103.50
10
40.66
20
105.00
10
20.66
20
105.00
0
LWPOLYLINE
5
150
100
AcDbEntity
8
STIRRUPS
62
2
370
12
100
AcDbPolyline
90
4
70
1
38
0.00
10
20.66
20
110.81
10
40.66
20
110.81
10
40.66
20
112.31
10
20.66
20
112.31
0
LWPOLYLINE
5
151
100
AcDbEntity
8
STIRRUPS
62
2
370
12
100
AcDbPolyline
90
4
70
1
38
0.00
10
20.66
20
118.12
10
40.66
20
118.12
10
40.66
20
119.62
10
20.66
20
119.62
0
LWPOLYLINE
5
152
100
AcDbEntity
8
STIRRUPS
62
2
370
12
100
AcDbPolyline
90
4
70
1
38
0.00
10
20.66
20
125.43
10
40.66
20
125.43
10
40.66
20
126.93
10
20.66
20
126.93
0
LWPOLYLINE
5
153
100
AcDbEntity
8
STIRRUPS
62
2
370
12
100
AcDbPolyline
90
4
70
1
38
0.00
10
20.66
20
132.75
10
40.66
20
132.75
10
40.66
20
134.25
10
20.66
20
134.25
0
LWPOLYLINE
5
154
100
AcDbEntity
8
STIRRUPS
62
2
370
12
100
AcDbPolyline
90
4
70
1
38
0.00
10
20.66
20
140.06
10
40.66
20
140.06
10
40.66
20
141.56
10
20.66
20
141.56
0
LWPOLYLINE
5
155
100
AcDbEntity
8
STIRRUPS
62
2
370
12
100
AcDbPolyline
90
4
70
1
38
0.00
10
20.66
20
147.37
10
40.66
20
147.37
10
40.66
20
148.87
10
20.66
20
148.87
0
LWPOLYLINE
5
156
100
AcDbEntity
8
STIRRUPS
62
2
370
12
100
AcDbPolyline
90
4
70
1
38
0.00
10
20.66
20
154.68
10
40.66
20
154.68
10
40.66
20
156.18
10
20.66
20
156.18
0
LWPOLYLINE
5
157
100
AcDbEntity
8
STIRRUPS
62
2
370
12
100
AcDbPolyline
90
4
70
1
38
0.00
10
20.66
20
161.99
10
40.66
20
161.99
10
40.66
20
163.49
10
20.66
20
163.49
0
LWPOLYLINE
5
158
100
AcDbEntity
8
STIRRUPS
62
2
370
12
100
AcDbPolyline
90
4
70
1
38
0.00
10
20.66
20
45.00
10
40.66
20
45.00
10
40.66
20
46.50
10
20.66
20
46.50
0
LWPOLYLINE
5
159
100
AcDbEntity
8
STIRRUPS
62
2
370
12
100
AcDbPolyline
90
4
70
1
38
0.00
10
20.66
20
49.68
10
40.66
20
49.68
10
40.66
20
51.18
10
20.66
20
51.18
0
LWPOLYLINE
5
15A
100
AcDbEntity
8
STIRRUPS
62
2
370
12
100
AcDbPolyline
90
4
70
1
38
0.00
10
20.66
20
54.36
10
40.66
20
54.36
10
40.66
20
55.86
10
20.66
20
55.86
0
LWPOLYLINE
5
15B
100
AcDbEntity
8
STIRRUPS
62
2
370
12
100
AcDbPolyline
90
4
70
1
38
0.00
10
20.66
20
59.04
10
40.66
20
59.04
10
40.66
20
60.54
10
20.66
20
60.54
0
LWPOLYLINE
5
15C
100
AcDbEntity
8
STIRRUPS
62
2
370
12
100
AcDbPolyline
90
4
70
1
38
0.00
10
20.66
20
63.72
10
40.66
20
63.72
10
40.66
20
65.22
10
20.66
20
65.22
0
LWPOLYLINE
5
15D
100
AcDbEntity
8
STIRRUPS
62
2
370
12
100
AcDbPolyline
90
4
70
1
38
0.00
10
20.66
20
68.40
10
40.66
20
68.40
10
40.66
20
69.90
10
20.66
20
69.90
0
LWPOLYLINE
5
15E
100
AcDbEntity
8
STIRRUPS
62
2
370
12
100
AcDbPolyline
90
4
70
1
38
0.00
10
20.66
20
73.08
10
40.66
20
73.08
10
40.66
20
74.58
10
20.66
20
74.58
0
LWPOLYLINE
5
15F
100
AcDbEntity
8
STIRRUPS
62
2
370
12
100
AcDbPolyline
90
4
70
1
38
0.00
10
20.66
20
77.76
10
40.66
20
77.76
10
40.66
20
79.26
10
20.66
20
79.26
0
LWPOLYLINE
5
160
100
AcDbEntity
8
STIRRUPS
62
2
370
12
100
AcDbPolyline
90
4
70
1
38
0.00
10
20.66
20
82.44
10
40.66
20
82.44
10
40.66
20
83.94
10
20.66
20
83.94
0
LWPOLYLINE
5
161
100
AcDbEntity
8
STIRRUPS
62
2
370
12
100
AcDbPolyline
90
4
70
1
38
0.00
10
20.66
20
87.12
10
40.66
20
87.12
10
40.66
20
88.62
10
20.66
20
88.62
0
LWPOLYLINE
5
162
100
AcDbEntity
8
STIRRUPS
62
2
370
12
100
AcDbPolyline
90
4
70
1
38
0.00
10
20.66
20
91.80
10
40.66
20
91.80
10
40.66
20
93.30
10
20.66
20
93.30
0
LWPOLYLINE
5
163
100
AcDbEntity
8
STIRRUPS
62
2
370
12
100
AcDbPolyline
90
4
70
1
38
0.00
10
20.66
20
96.48
10
40.66
20
96.48
10
40.66
20
97.98
10
20.66
20
97.98
0
LWPOLYLINE
5
164
100
AcDbEntity
8
STIRRUPS
62
2
370
12
100
AcDbPolyline
90
4
70
1
38
0.00
10
20.66
20
101.16
10
40.66
20
101.16
10
40.66
20
102.66
10
20.66
20
102.66
0
LWPOLYLINE
5
165
100
AcDbEntity
8
STIRRUPS
62
2
370
12
100
AcDbPolyline
90
4
70
1
38
0.00
10
20.66
20
105.84
10
40.66
20
105.84
10
40.66
20
107.34
10
20.66
20
107.34
0
LWPOLYLINE
5
166
100
AcDbEntity
8
STIRRUPS
62
2
370
12
100
AcDbPolyline
90
4
70
1
38
0.00
10
20.66
20
110.52
10
40.66
20
110.52
10
40.66
20
112.02
10
20.66
20
112.02
0
LWPOLYLINE
5
167
100
AcDbEntity
8
STIRRUPS
62
2
370
12
100
AcDbPolyline
90
4
70
1
38
0.00
10
20.66
20
115.20
10
40.66
20
115.20
10
40.66
20
116.70
10
20.66
20
116.70
0
LWPOLYLINE
5
168
100
AcDbEntity
8
STIRRUPS
62
2
370
12
100
AcDbPolyline
90
4
70
1
38
0.00
10
20.66
20
119.88
10
40.66
20
119.88
10
40.66
20
121.38
10
20.66
20
121.38
0
LWPOLYLINE
5
169
100
AcDbEntity
8
STIRRUPS
62
2
370
12
100
AcDbPolyline
90
4
70
1
38
0.00
10
20.66
20
124.56
10
40.66
20
124.56
10
40.66
20
126.06
10
20.66
20
126.06
0
LWPOLYLINE
5
16A
100
AcDbEntity
8
STIRRUPS
62
2
370
12
100
AcDbPolyline
90
4
70
1
38
0.00
10
20.66
20
129.24
10
40.66
20
129.24
10
40.66
20
130.74
10
20.66
20
130.74
0
LWPOLYLINE
5
16B
100
AcDbEntity
8
STIRRUPS
62
2
370
12
100
AcDbPolyline
90
4
70
1
38
0.00
10
20.66
20
133.92
10
40.66
20
133.92
10
40.66
20
135.42
10
20.66
20
135.42
0
LWPOLYLINE
5
16C
100
AcDbEntity
8
STIRRUPS
62
2
370
12
100
AcDbPolyline
90
4
70
1
38
0.00
10
20.66
20
138.60
10
40.66
20
138.60
10
40.66
20
140.10
10
20.66
20
140.10
0
LWPOLYLINE
5
16D
100
AcDbEntity
8
STIRRUPS
62
2
370
12
100
AcDbPolyline
90
4
70
1
38
0.00
10
20.66
20
143.27
10
40.66
20
143.27
10
40.66
20
144.77
10
20.66
20
144.77
0
LWPOLYLINE
5
16E
100
AcDbEntity
8
STIRRUPS
62
2
370
12
100
AcDbPolyline
90
4
70
1
38
0.00
10
20.66
20
147.95
10
40.66
20
147.95
10
40.66
20
149.45
10
20.66
20
149.45
0
LWPOLYLINE
5
16F
100
AcDbEntity
8
STIRRUPS
62
2
370
12
100
AcDbPolyline
90
4
70
1
38
0.00
10
20.66
20
152.63
10
40.66
20
152.63
10
40.66
20
154.13
10
20.66
20
154.13
0
LWPOLYLINE
5
170
100
AcDbEntity
8
STIRRUPS
62
2
370
12
100
AcDbPolyline
90
4
70
1
38
0.00
10
20.66
20
157.31
10
40.66
20
157.31
10
40.66
20
158.81
10
20.66
20
158.81
0
LWPOLYLINE
5
171
100
AcDbEntity
8
STIRRUPS
62
2
370
12
100
AcDbPolyline
90
4
70
1
38
0.00
10
20.66
20
161.99
10
40.66
20
161.99
10
40.66
20
163.49
10
20.66
20
163.49
0
LINE
5
172
100
AcDbEntity
8
DIM
62
5
370
13
100
AcDbLine
10
20.00
20
45.00
30
0.00
11
20.00
21
27.00
31
0.00
0
LINE
5
173
100
AcDbEntity
8
DIM
62
5
370
13
100
AcDbLine
10
30.97
20
45.00
30
0.00
11
30.97
21
27.00
31
0.00
0
LINE
5
174
100
AcDbEntity
8
DIM
62
5
370
13
100
AcDbLine
10
20.00
20
27.00
30
0.00
11
30.97
21
27.00
31
0.00
0
LINE
5
175
100
AcDbEntity
8
DIM
62
5
370
13
100
AcDbLine
10
20.00
20
27.00
30
0.00
11
14.80
21
30.00
31
0.00
0
LINE
5
176
100
AcDbEntity
8
DIM
62
5
370
13
100
AcDbLine
10
20.00
20
27.00
30
0.00
11
14.80
21
24.00
31
0.00
0
LINE
5
177
100
AcDbEntity
8
DIM
62
5
370
13
100
AcDbLine
10
30.97
20
27.00
30
0.00
11
36.16
21
24.00
31
0.00
0
LINE
5
178
100
AcDbEntity
8
DIM
62
5
370
13
100
AcDbLine
10
30.97
20
27.00
30
0.00
11
36.16
21
30.00
31
0.00
0
TEXT
5
179
100
AcDbEntity
8
DIM
62
5
100
AcDbText
10
25.48
20
30.00
30
0.00
40
2.60
1
b=300.00
0
TEXT
5
17A
100
AcDbEntity
8
TEXT
100
AcDbText
10
80.61
20
208.82
30
0.00
40
3.30
1
SECTION
0
LWPOLYLINE
5
17B
100
AcDbEntity
8
CONCRETE
62
7
370
25
100
AcDbPolyline
90
4
70
1
38
0.00
10
80.61
20
113.82
10
165.61
20
113.82
10
165.61
20
198.82
10
80.61
20
198.82
0
LWPOLYLINE
5
17C
100
AcDbEntity
8
STIRRUPS
62
2
370
13
100
AcDbPolyline
90
4
70
1
38
0.00
10
90.81
20
124.02
10
155.41
20
124.02
10
155.41
20
188.62
10
90.81
20
188.62
0
CIRCLE
5
17D
100
AcDbEntity
8
REBAR
62
1
370
13
100
AcDbCircle
10
94.21
20
129.12
30
0.00
40
2.00
0
LWPOLYLINE
5
17E
100
AcDbEntity
8
PANEL
62
7
370
13
100
AcDbPolyline
90
4
70
1
38
0.00
10
105.80
20
133.80
10
146.10
20
133.80
10
146.10
20
233.70
10
105.80
20
233.70
0
TEXT
5
17F
100
AcDbEntity
8
TEXT
100
AcDbText
10
110.80
20
223.70
30
0.00
40
4.20
1
BAR SHAPES / CUTTING DETAILS
0
LINE
5
180
100
AcDbEntity
8
REBAR
62
1
370
18
100
AcDbLine
10
113.80
20
210.70
30
0.00
11
391.80
21
210.70
31
0.00
0
TEXT
5
181
100
AcDbEntity
8
BBS
100
AcDbText
10
113.80
20
203.70
30
0.00
40
4.20
1
C1 Ø16.00 CUT 3475.00 mm
0
LINE
5
182
100
AcDbEntity
8
LAP
62
1
370
13
100
AcDbLine
10
117.80
20
204.70
30
0.00
11
117.80
21
216.70
31
0.00
0
TEXT
5
183
100
AcDbEntity
8
LAP
62
1
100
AcDbText
10
120.80
20
218.70
30
0.00
40
3.00
1
LAP 450.00
0
LWPOLYLINE
5
184
100
AcDbEntity
8
REBAR
62
1
370
18
100
AcDbPolyline
90
4
70
1
38
0.00
10
113.80
20
192.70
10
134.60
20
192.70
10
134.60
20
215.10
10
113.80
20
215.10
0
TEXT
5
185
100
AcDbEntity
8
REBAR
100
AcDbText
10
113.80
20
218.94
30
0.00
40
4.00
1
T1 135°
0
TEXT
5
186
100
AcDbEntity
8
BBS
100
AcDbText
10
113.80
20
185.70
30
0.00
40
4.20
1
T1 Ø8.00 CUT 1344.00 mm
0
LWPOLYLINE
5
187
100
AcDbEntity
8
REBAR
62
1
370
18
100
AcDbPolyline
90
4
70
1
38
0.00
10
113.80
20
174.70
10
134.60
20
174.70
10
134.60
20
197.10
10
113.80
20
197.10
0
TEXT
5
188
100
AcDbEntity
8
REBAR
100
AcDbText
10
113.80
20
200.94
30
0.00
40
4.00
1
T2 135°
0
TEXT
5
189
100
AcDbEntity
8
BBS
100
AcDbText
10
113.80
20
167.70
30
0.00
40
4.20
1
T2 Ø8.00 CUT 1344.00 mm
0
LWPOLYLINE
5
18A
100
AcDbEntity
8
REBAR
62
1
370
18
100
AcDbPolyline
90
4
70
1
38
0.00
10
113.80
20
156.70
10
134.60
20
156.70
10
134.60
20
179.10
10
113.80
20
179.10
0
TEXT
5
18B
100
AcDbEntity
8
REBAR
100
AcDbText
10
113.80
20
182.94
30
0.00
40
4.00
1
T3 135°
0
TEXT
5
18C
100
AcDbEntity
8
BBS
100
AcDbText
10
113.80
20
149.70
30
0.00
40
4.20
1
T3 Ø8.00 CUT 1344.00 mm
0
LWPOLYLINE
5
18D
100
AcDbEntity
8
PANEL
62
7
370
13
100
AcDbPolyline
90
4
70
1
38
0.00
10
105.80
20
51.66
10
146.10
20
51.66
10
146.10
20
124.92
10
105.80
20
124.92
0
TEXT
5
18E
100
AcDbEntity
8
BBS
100
AcDbText
10
110.80
20
114.92
30
0.00
40
4.20
1
BBS
0
TEXT
5
18F
100
AcDbEntity
8
BBS
100
AcDbText
10
110.80
20
102.92
30
0.00
40
2.70
1
MARK
0
TEXT
5
190
100
AcDbEntity
8
BBS
100
AcDbText
10
147.80
20
102.92
30
0.00
40
2.70
1
D
0
TEXT
5
191
100
AcDbEntity
8
BBS
100
AcDbText
10
163.80
20
102.92
30
0.00
40
2.70
1
QTY
0
TEXT
5
192
100
AcDbEntity
8
BBS
100
AcDbText
10
187.80
20
102.92
30
0.00
40
2.70
1
CUT
0
TEXT
5
193
100
AcDbEntity
8
BBS
100
AcDbText
10
230.80
20
102.92
30
0.00
40
2.70
1
WT
0
TEXT
5
194
100
AcDbEntity
8
BBS
100
AcDbText
10
110.80
20
93.92
30
0.00
40
2.70
1
C1
0
TEXT
5
195
100
AcDbEntity
8
BBS
100
AcDbText
10
147.80
20
93.92
30
0.00
40
2.70
1
16.00
0
TEXT
5
196
100
AcDbEntity
8
BBS
100
AcDbText
10
163.80
20
93.92
30
0.00
40
2.70
1
59
0
TEXT
5
197
100
AcDbEntity
8
BBS
100
AcDbText
10
187.80
20
93.92
30
0.00
40
2.70
1
3475.00
0
TEXT
5
198
100
AcDbEntity
8
BBS
100
AcDbText
10
230.80
20
93.92
30
0.00
40
2.70
1
323.58
0
TEXT
5
199
100
AcDbEntity
8
BBS
100
AcDbText
10
110.80
20
85.92
30
0.00
40
2.70
1
T1
0
TEXT
5
19A
100
AcDbEntity
8
BBS
100
AcDbText
10
147.80
20
85.92
30
0.00
40
2.70
1
8.00
0
TEXT
5
19B
100
AcDbEntity
8
BBS
100
AcDbText
10
163.80
20
85.92
30
0.00
40
2.70
1
4
0
TEXT
5
19C
100
AcDbEntity
8
BBS
100
AcDbText
10
187.80
20
85.92
30
0.00
40
2.70
1
1344.00
0
TEXT
5
19D
100
AcDbEntity
8
BBS
100
AcDbText
10
230.80
20
85.92
30
0.00
40
2.70
1
2.12
0
TEXT
5
19E
100
AcDbEntity
8
BBS
100
AcDbText
10
110.80
20
77.92
30
0.00
40
2.70
1
T2
0
TEXT
5
19F
100
AcDbEntity
8
BBS
100
AcDbText
10
147.80
20
77.92
30
0.00
40
2.70
1
8.00
0
TEXT
5
1A0
100
AcDbEntity
8
BBS
100
AcDbText
10
163.80
20
77.92
30
0.00
40
2.70
1
12
0
TEXT
5
1A1
100
AcDbEntity
8
BBS
100
AcDbText
10
187.80
20
77.92
30
0.00
40
2.70
1
1344.00
0
TEXT
5
1A2
100
AcDbEntity
8
BBS
100
AcDbText
10
230.80
20
77.92
30
0.00
40
2.70
1
6.36
0
TEXT
5
1A3
100
AcDbEntity
8
BBS
100
AcDbText
10
110.80
20
69.92
30
0.00
40
2.70
1
T3
0
TEXT
5
1A4
100
AcDbEntity
8
BBS
100
AcDbText
10
147.80
20
69.92
30
0.00
40
2.70
1
8.00
0
TEXT
5
1A5
100
AcDbEntity
8
BBS
100
AcDbText
10
163.80
20
69.92
30
0.00
40
2.70
1
4
0
TEXT
5
1A6
100
AcDbEntity
8
BBS
100
AcDbText
10
187.80
20
69.92
30
0.00
40
2.70
1
1344.00
0
TEXT
5
1A7
100
AcDbEntity
8
BBS
100
AcDbText
10
230.80
20
69.92
30
0.00
40
2.70
1
2.12
0
TEXT
5
1A8
100
AcDbEntity
8
BBS
100
AcDbText
10
110.80
20
59.66
30
0.00
40
3.00
1
TOTAL 334.18 kg
0
ENDSEC
0
SECTION
2
OBJECTS
0
DICTIONARY
5
1AA
330
0
100
AcDbDictionary
281
1
3
ACAD_GROUP
350
1A9
0
DICTIONARY
5
1A9
330
1AA
100
AcDbDictionary
281
0
0
ENDSEC
0
EOF
