0
SECTION
2
HEADER
9
$ACADVER
1
AC1027
9
$DWGCODEPAGE
3
utf_8
9
$INSBASE
10
0.0
20
0.0
30
0.0
9
$EXTMIN
10
-10.00
20
-10.00
30
0.0
9
$EXTMAX
10
430.00
20
307.00
30
0.0
9
$INSUNITS
70
4
9
$MEASUREMENT
70
1
9
$DIMSTYLE
2
Standard
9
$CELTYPE
6
BYLAYER
9
$TEXTSTYLE
7
STANDARD
9
$CLAYER
7
TEXT
9
$HANDSEED
5
150
0
ENDSEC
0
SECTION
2
CLASSES
0
ENDSEC
0
SECTION
2
TABLES
0
TABLE
2
LTYPE
5
100
100
AcDbSymbolTable
70
1
0
LTYPE
5
101
100
AcDbSymbolTableRecord
100
AcDbLinetypeTableRecord
2
CONTINUOUS
70
0
3
Solid line
72
65
73
0
40
0.0
0
ENDTAB
0
TABLE
2
LAYER
5
102
100
AcDbSymbolTable
70
17
0
LAYER
5
103
100
AcDbSymbolTableRecord
100
AcDbLayerTableRecord
2
BORDER
70
0
62
7
6
CONTINUOUS
0
LAYER
5
104
100
AcDbSymbolTableRecord
100
AcDbLayerTableRecord
2
CONCRETE
70
0
62
8
6
CONTINUOUS
0
LAYER
5
105
100
AcDbSymbolTableRecord
100
AcDbLayerTableRecord
2
REBAR
70
0
62
1
6
CONTINUOUS
0
LAYER
5
106
100
AcDbSymbolTableRecord
100
AcDbLayerTableRecord
2
REBAR_TOP
70
0
62
5
6
CONTINUOUS
0
LAYER
5
107
100
AcDbSymbolTableRecord
100
AcDbLayerTableRecord
2
STIRRUPS
70
0
62
2
6
CONTINUOUS
0
LAYER
5
108
100
AcDbSymbolTableRecord
100
AcDbLayerTableRecord
2
STEEL
70
0
62
7
6
CONTINUOUS
0
LAYER
5
109
100
AcDbSymbolTableRecord
100
AcDbLayerTableRecord
2
BOLTS
70
0
62
4
6
CONTINUOUS
0
LAYER
5
10A
100
AcDbSymbolTableRecord
100
AcDbLayerTableRecord
2
WELDS
70
0
62
2
6
CONTINUOUS
0
LAYER
5
10B
100
AcDbSymbolTableRecord
100
AcDbLayerTableRecord
2
LOADS
70
0
62
6
6
CONTINUOUS
0
LAYER
5
10C
100
AcDbSymbolTableRecord
100
AcDbLayerTableRecord
2
DIM
70
0
62
5
6
CONTINUOUS
0
LAYER
5
10D
100
AcDbSymbolTableRecord
100
AcDbLayerTableRecord
2
TEXT
70
0
62
7
6
CONTINUOUS
0
LAYER
5
10E
100
AcDbSymbolTableRecord
100
AcDbLayerTableRecord
2
NOTES
70
0
62
3
6
CONTINUOUS
0
LAYER
5
10F
100
AcDbSymbolTableRecord
100
AcDbLayerTableRecord
2
BBS
70
0
62
7
6
CONTINUOUS
0
LAYER
5
110
100
AcDbSymbolTableRecord
100
AcDbLayerTableRecord
2
LAP
70
0
62
1
6
CONTINUOUS
0
LAYER
5
111
100
AcDbSymbolTableRecord
100
AcDbLayerTableRecord
2
PANEL
70
0
62
8
6
CONTINUOUS
0
LAYER
5
112
100
AcDbSymbolTableRecord
100
AcDbLayerTableRecord
2
WATER
70
0
62
5
6
CONTINUOUS
0
LAYER
5
113
100
AcDbSymbolTableRecord
100
AcDbLayerTableRecord
2
REVISION
70
0
62
1
6
CONTINUOUS
0
ENDTAB
0
TABLE
2
STYLE
5
114
100
AcDbSymbolTable
70
1
0
STYLE
5
115
100
AcDbSymbolTableRecord
100
AcDbTextStyleTableRecord
2
STANDARD
70
0
40
0.0
41
1.0
50
0.0
71
0
42
2.5
3
txt
4

0
ENDTAB
0
TABLE
2
DIMSTYLE
5
116
100
AcDbSymbolTable
70
1
0
DIMSTYLE
105
117
100
AcDbSymbolTableRecord
100
AcDbDimStyleTableRecord
2
Standard
70
0
3

4

40
1.0
41
3.0
42
0.0
43
0.0
44
1.0
45
0.0
46
0.0
47
0.0
48
0.0
140
1.0
141
2.5
142
0.0
143
25.4
144
1.0
145
0.0
146
1.0
147
50.0
148
0.0
71
0
72
0
73
0
74
0
75
0
76
0
77
1
78
0
79
0
170
0
0
ENDTAB
0
TABLE
2
VPORT
5
118
100
AcDbSymbolTable
70
0
0
ENDTAB
0
TABLE
2
VIEW
5
119
100
AcDbSymbolTable
70
0
0
ENDTAB
0
TABLE
2
UCS
5
11A
100
AcDbSymbolTable
70
0
0
ENDTAB
0
TABLE
2
APPID
5
11B
100
AcDbSymbolTable
70
1
0
APPID
5
11C
100
AcDbSymbolTableRecord
100
AcDbRegAppTableRecord
2
ACAD
70
0
0
ENDTAB
0
ENDSEC
0
SECTION
2
BLOCKS
0
BLOCK
5
11D
100
AcDbEntity
8
0
100
AcDbBlockBegin
2
*MODEL_SPACE
70
0
10
0.0
20
0.0
30
0.0
3
*MODEL_SPACE
1

0
ENDBLK
5
11E
100
AcDbEntity
8
0
100
AcDbBlockEnd
0
BLOCK
5
11F
100
AcDbEntity
67
1
8
0
100
AcDbBlockBegin
2
*PAPER_SPACE
70
0
10
0.0
20
0.0
30
0.0
3
*PAPER_SPACE
1

0
ENDBLK
5
120
100
AcDbEntity
67
1
8
0
100
AcDbBlockEnd
0
ENDSEC
0
SECTION
2
ENTITIES
0
LWPOLYLINE
5
121
100
AcDbEntity
8
BORDER
62
7
370
50
100
AcDbPolyline
90
4
70
1
38
0.00
10
0.00
20
0.00
10
420.00
20
0.00
10
420.00
20
297.00
10
0.00
20
297.00
0
TEXT
5
122
100
AcDbEntity
8
TEXT
100
AcDbText
10
12.00
20
282.00
30
0.00
40
5.00
1
T
0
TEXT
5
123
100
AcDbEntity
8
TEXT
100
AcDbText
10
12.00
20
270.00
30
0.00
40
3.80
1
S-98 | MASTER BAR BENDING SCHEDULE | REV 00
0
TEXT
5
124
100
AcDbEntity
8
BBS
100
AcDbText
10
15.00
20
242.00
30
0.00
40
5.50
1
MASTER BAR BENDING SCHEDULE
0
TEXT
5
125
100
AcDbEntity
8
BBS
100
AcDbText
10
15.00
20
228.00
30
0.00
40
2.80
1
MARK
0
TEXT
5
126
100
AcDbEntity
8
BBS
100
AcDbText
10
33.00
20
228.00
30
0.00
40
2.80
1
MEMBER
0
TEXT
5
127
100
AcDbEntity
8
BBS
100
AcDbText
10
78.00
20
228.00
30
0.00
40
2.80
1
D
0
TEXT
5
128
100
AcDbEntity
8
BBS
100
AcDbText
10
96.00
20
228.00
30
0.00
40
2.80
1
SHAPE
0
TEXT
5
129
100
AcDbEntity
8
BBS
100
AcDbText
10
144.00
20
228.00
30
0.00
40
2.80
1
QTY
0
TEXT
5
12A
100
AcDbEntity
8
BBS
100
AcDbText
10
162.00
20
228.00
30
0.00
40
2.80
1
CUT
0
TEXT
5
12B
100
AcDbEntity
8
BBS
100
AcDbText
10
198.00
20
228.00
30
0.00
40
2.80
1
TOTAL m
0
TEXT
5
12C
100
AcDbEntity
8
BBS
100
AcDbText
10
228.00
20
228.00
30
0.00
40
2.80
1
KG
0
TEXT
5
12D
100
AcDbEntity
8
BBS
100
AcDbText
10
15.00
20
220.00
30
0.00
40
2.60
1
C1
0
TEXT
5
12E
100
AcDbEntity
8
BBS
100
AcDbText
10
33.00
20
220.00
30
0.00
40
2.60
1
S-COL-001-C1
0
TEXT
5
12F
100
AcDbEntity
8
BBS
100
AcDbText
10
78.00
20
220.00
30
0.00
40
2.60
1
16.00
0
TEXT
5
130
100
AcDbEntity
8
BBS
100
AcDbText
10
96.00
20
220.00
30
0.00
40
2.60
1
STRAIGHT
0
TEXT
5
131
100
AcDbEntity
8
BBS
100
AcDbText
10
144.00
20
220.00
30
0.00
40
2.60
1
59
0
TEXT
5
132
100
AcDbEntity
8
BBS
100
AcDbText
10
162.00
20
220.00
30
0.00
40
2.60
1
3475.00
0
TEXT
5
133
100
AcDbEntity
8
BBS
100
AcDbText
10
198.00
20
220.00
30
0.00
40
2.60
1
205.03
0
TEXT
5
134
100
AcDbEntity
8
BBS
100
AcDbText
10
228.00
20
220.00
30
0.00
40
2.60
1
323.58
0
TEXT
5
135
100
AcDbEntity
8
BBS
100
AcDbText
10
15.00
20
213.00
30
0.00
40
2.60
1
T1
0
TEXT
5
136
100
AcDbEntity
8
BBS
100
AcDbText
10
33.00
20
213.00
30
0.00
40
2.60
1
S-COL-001-C1
0
TEXT
5
137
100
AcDbEntity
8
BBS
100
AcDbText
10
78.00
20
213.00
30
0.00
40
2.60
1
8.00
0
TEXT
5
138
100
AcDbEntity
8
BBS
100
AcDbText
10
96.00
20
213.00
30
0.00
40
2.60
1
STIRRUP_135
0
TEXT
5
139
100
AcDbEntity
8
BBS
100
AcDbText
10
144.00
20
213.00
30
0.00
40
2.60
1
4
0
TEXT
5
13A
100
AcDbEntity
8
BBS
100
AcDbText
10
162.00
20
213.00
30
0.00
40
2.60
1
1344.00
0
TEXT
5
13B
100
AcDbEntity
8
BBS
100
AcDbText
10
198.00
20
213.00
30
0.00
40
2.60
1
5.38
0
TEXT
5
13C
100
AcDbEntity
8
BBS
100
AcDbText
10
228.00
20
213.00
30
0.00
40
2.60
1
2.12
0
TEXT
5
13D
100
AcDbEntity
8
BBS
100
AcDbText
10
15.00
20
206.00
30
0.00
40
2.60
1
T2
0
TEXT
5
13E
100
AcDbEntity
8
BBS
100
AcDbText
10
33.00
20
206.00
30
0.00
40
2.60
1
S-COL-001-C1
0
TEXT
5
13F
100
AcDbEntity
8
BBS
100
AcDbText
10
78.00
20
206.00
30
0.00
40
2.60
1
8.00
0
TEXT
5
140
100
AcDbEntity
8
BBS
100
AcDbText
10
96.00
20
206.00
30
0.00
40
2.60
1
STIRRUP_135
0
TEXT
5
141
100
AcDbEntity
8
BBS
100
AcDbText
10
144.00
20
206.00
30
0.00
40
2.60
1
12
0
TEXT
5
142
100
AcDbEntity
8
BBS
100
AcDbText
10
162.00
20
206.00
30
0.00
40
2.60
1
1344.00
0
TEXT
5
143
100
AcDbEntity
8
BBS
100
AcDbText
10
198.00
20
206.00
30
0.00
40
2.60
1
16.13
0
TEXT
5
144
100
AcDbEntity
8
BBS
100
AcDbText
10
228.00
20
206.00
30
0.00
40
2.60
1
6.36
0
TEXT
5
145
100
AcDbEntity
8
BBS
100
AcDbText
10
15.00
20
199.00
30
0.00
40
2.60
1
T3
0
TEXT
5
146
100
AcDbEntity
8
BBS
100
AcDbText
10
33.00
20
199.00
30
0.00
40
2.60
1
S-COL-001-C1
0
TEXT
5
147
100
AcDbEntity
8
BBS
100
AcDbText
10
78.00
20
199.00
30
0.00
40
2.60
1
8.00
0
TEXT
5
148
100
AcDbEntity
8
BBS
100
AcDbText
10
96.00
20
199.00
30
0.00
40
2.60
1
STIRRUP_135
0
TEXT
5
149
100
AcDbEntity
8
BBS
100
AcDbText
10
144.00
20
199.00
30
0.00
40
2.60
1
4
0
TEXT
5
14A
100
AcDbEntity
8
BBS
100
AcDbText
10
162.00
20
199.00
30
0.00
40
2.60
1
1344.00
0
TEXT
5
14B
100
AcDbEntity
8
BBS
100
AcDbText
10
198.00
20
199.00
30
0.00
40
2.60
1
5.38
0
TEXT
5
14C
100
AcDbEntity
8
BBS
100
AcDbText
10
228.00
20
199.00
30
0.00
40
2.60
1
2.12
0
TEXT
5
14D
100
AcDbEntity
8
NOTES
100
AcDbText
10
15.00
20
12.00
30
0.00
40
3.20
1
TOTAL STEEL = 334.18 kg | GENERATED 2026-08-29T21:04:42.518915800Z
0
ENDSEC
0
SECTION
2
OBJECTS
0
DICTIONARY
5
14F
330
0
100
AcDbDictionary
281
1
3
ACAD_GROUP
350
14E
0
DICTIONARY
5
14E
330
14F
100
AcDbDictionary
281
0
0
ENDSEC
0
EOF
